<svg width="611" height="299" viewBox="0 0 611 299" fill="none" xmlns="http://www.w3.org/2000/svg">
<g filter="url(#filter0_d_152_3)">
<path fill-rule="evenodd" clip-rule="evenodd" d="M199 178.638H213.924L228.543 149.351H339.404L354.024 179H369.252L354.633 149.351H382.957L397.272 179H412.5L327.526 4H312.298L374.125 131.273H345.8L283.974 4L199 178.638ZM237.375 131.273H330.572L283.974 35.4566L237.375 131.273Z" fill="white"/>
<path d="M8.07344 255L22.4734 220H30.8234L45.0734 255H37.2234L33.6734 245.8H19.2234L15.6234 255H8.07344ZM21.4734 240H31.4734L26.4734 227.1L21.4734 240ZM66.198 255V226.4H54.398V220H85.198V226.4H73.448V255H66.198ZM119.267 255.55C116.667 255.55 114.25 255.1 112.017 254.2C109.783 253.267 107.817 251.983 106.117 250.35C104.45 248.683 103.133 246.767 102.167 244.6C101.233 242.4 100.767 240.033 100.767 237.5C100.767 234.967 101.233 232.617 102.167 230.45C103.133 228.25 104.45 226.333 106.117 224.7C107.817 223.033 109.783 221.75 112.017 220.85C114.25 219.917 116.667 219.45 119.267 219.45C121.867 219.45 124.283 219.917 126.517 220.85C128.783 221.75 130.75 223.033 132.417 224.7C134.117 226.333 135.433 228.25 136.367 230.45C137.3 232.617 137.767 234.967 137.767 237.5C137.767 240.033 137.3 242.4 136.367 244.6C135.433 246.767 134.117 248.683 132.417 250.35C130.75 251.983 128.783 253.267 126.517 254.2C124.283 255.1 121.867 255.55 119.267 255.55ZM119.267 248.9C120.867 248.9 122.333 248.617 123.667 248.05C125 247.45 126.167 246.65 127.167 245.65C128.167 244.617 128.95 243.4 129.517 242C130.083 240.6 130.367 239.1 130.367 237.5C130.367 235.867 130.083 234.367 129.517 233C128.95 231.6 128.167 230.4 127.167 229.4C126.167 228.367 125 227.567 123.667 227C122.333 226.4 120.867 226.1 119.267 226.1C117.7 226.1 116.25 226.4 114.917 227C113.583 227.567 112.417 228.367 111.417 229.4C110.417 230.4 109.633 231.6 109.067 233C108.5 234.367 108.217 235.85 108.217 237.45C108.217 239.083 108.5 240.6 109.067 242C109.633 243.4 110.417 244.617 111.417 245.65C112.417 246.65 113.583 247.45 114.917 248.05C116.25 248.617 117.7 248.9 119.267 248.9ZM157.791 255V220H167.091L176.691 238.9L186.291 220H195.591V255H188.741V229.25L176.591 252.5L164.491 229.15V255H157.791ZM216.882 255V220H224.132V255H216.882ZM262.755 255.5C260.155 255.5 257.722 255.05 255.455 254.15C253.189 253.217 251.205 251.933 249.505 250.3C247.839 248.667 246.522 246.767 245.555 244.6C244.622 242.4 244.155 240.033 244.155 237.5C244.155 234.933 244.622 232.567 245.555 230.4C246.522 228.2 247.855 226.283 249.555 224.65C251.255 223.017 253.222 221.75 255.455 220.85C257.722 219.917 260.155 219.45 262.755 219.45C264.689 219.45 266.555 219.717 268.355 220.25C270.155 220.783 271.822 221.533 273.355 222.5C274.922 223.467 276.255 224.633 277.355 226L272.455 230.85C271.189 229.283 269.722 228.1 268.055 227.3C266.422 226.5 264.655 226.1 262.755 226.1C261.189 226.1 259.722 226.4 258.355 227C256.989 227.567 255.805 228.367 254.805 229.4C253.805 230.4 253.022 231.6 252.455 233C251.889 234.367 251.605 235.867 251.605 237.5C251.605 239.1 251.889 240.6 252.455 242C253.022 243.367 253.822 244.567 254.855 245.6C255.889 246.6 257.089 247.383 258.455 247.95C259.855 248.517 261.372 248.8 263.005 248.8C264.839 248.8 266.555 248.417 268.155 247.65C269.755 246.883 271.172 245.783 272.405 244.35L277.155 249.05C276.055 250.383 274.739 251.533 273.205 252.5C271.672 253.467 270.005 254.217 268.205 254.75C266.439 255.25 264.622 255.5 262.755 255.5ZM321.453 255V220H328.703V234.1H344.803V220H352.053V255H344.803V240.65H328.703V255H321.453ZM388.366 255.5C385.199 255.5 382.449 254.867 380.116 253.6C377.816 252.333 376.032 250.533 374.766 248.2C373.499 245.833 372.866 243.067 372.866 239.9V220H380.116V239.9C380.116 241.7 380.449 243.283 381.116 244.65C381.816 245.983 382.782 247.017 384.016 247.75C385.282 248.45 386.749 248.8 388.416 248.8C390.082 248.8 391.532 248.45 392.766 247.75C393.999 247.017 394.949 245.983 395.616 244.65C396.316 243.283 396.666 241.7 396.666 239.9V220H403.866V239.9C403.866 243.033 403.232 245.783 401.966 248.15C400.699 250.483 398.899 252.3 396.566 253.6C394.266 254.867 391.532 255.5 388.366 255.5ZM424.646 255V220H431.546L448.946 242.6V220H455.746V255H449.346L431.496 231.6V255H424.646ZM486.647 255V226.4H474.847V220H505.647V226.4H493.897V255H486.647ZM524.714 255V220H551.614V226.3H531.964V234.3H544.914V240.4H531.964V248.7H551.814V255H524.714ZM571.941 255V220H589.041C591.408 220 593.491 220.467 595.291 221.4C597.124 222.3 598.541 223.567 599.541 225.2C600.574 226.833 601.091 228.717 601.091 230.85C601.091 233.083 600.474 235.05 599.241 236.75C598.008 238.45 596.358 239.717 594.291 240.55L602.041 255H593.941L587.091 241.6H579.191V255H571.941ZM579.191 235.65H588.391C590.024 235.65 591.324 235.217 592.291 234.35C593.291 233.483 593.791 232.35 593.791 230.95C593.791 229.55 593.291 228.417 592.291 227.55C591.324 226.683 590.024 226.25 588.391 226.25H579.191V235.65Z" fill="white"/>
<path d="M417.683 274V267L419.053 266.77V269.21C419.466 268.883 419.953 268.72 420.513 268.72C421.006 268.72 421.453 268.84 421.853 269.08C422.253 269.32 422.569 269.643 422.803 270.05C423.043 270.45 423.163 270.9 423.163 271.4C423.163 271.9 423.043 272.353 422.803 272.76C422.563 273.16 422.239 273.48 421.833 273.72C421.426 273.953 420.973 274.07 420.473 274.07C420.213 274.07 419.959 274.033 419.713 273.96C419.466 273.887 419.239 273.78 419.033 273.64V274H417.683ZM420.293 272.91C420.579 272.91 420.836 272.843 421.063 272.71C421.296 272.577 421.479 272.397 421.613 272.17C421.746 271.943 421.813 271.687 421.813 271.4C421.813 271.113 421.746 270.857 421.613 270.63C421.479 270.397 421.296 270.217 421.063 270.09C420.836 269.957 420.579 269.89 420.293 269.89C420.039 269.89 419.806 269.933 419.593 270.02C419.386 270.1 419.206 270.223 419.053 270.39V272.42C419.199 272.573 419.379 272.693 419.593 272.78C419.813 272.867 420.046 272.91 420.293 272.91ZM427.355 276.15C427.235 276.15 427.118 276.143 427.005 276.13C426.898 276.123 426.808 276.113 426.735 276.1V274.92C426.868 274.947 427.028 274.96 427.215 274.96C427.715 274.96 428.061 274.723 428.255 274.25L428.335 274.05L426.305 268.79H427.815L429.115 272.34L430.585 268.79H432.065L429.665 274.42C429.485 274.84 429.288 275.177 429.075 275.43C428.861 275.683 428.615 275.867 428.335 275.98C428.061 276.093 427.735 276.15 427.355 276.15ZM442.888 274L440.048 267H441.618L443.758 272.51L445.948 267H447.448L444.568 274H442.888ZM451.042 274V267H452.422L455.902 271.52V267H457.262V274H455.982L452.412 269.32V274H451.042ZM461.532 274V267H462.982V274H461.532ZM467.257 274V267H468.707V274H467.257ZM472.312 274L475.192 267H476.862L479.712 274H478.142L477.432 272.16H474.542L473.822 274H472.312ZM474.992 271H476.992L475.992 268.42L474.992 271ZM490.818 274.1C490.251 274.1 489.698 273.997 489.157 273.79C488.617 273.577 488.137 273.277 487.718 272.89L488.548 271.85C488.954 272.21 489.344 272.47 489.718 272.63C490.098 272.79 490.498 272.87 490.918 272.87C491.211 272.87 491.464 272.837 491.678 272.77C491.891 272.697 492.054 272.593 492.168 272.46C492.288 272.327 492.348 272.17 492.348 271.99C492.348 271.75 492.261 271.567 492.088 271.44C491.914 271.307 491.618 271.203 491.198 271.13L489.808 270.89C489.214 270.79 488.761 270.58 488.448 270.26C488.141 269.94 487.988 269.527 487.988 269.02C487.988 268.587 488.098 268.21 488.318 267.89C488.544 267.57 488.861 267.327 489.268 267.16C489.681 266.987 490.171 266.9 490.738 266.9C491.251 266.9 491.761 266.987 492.268 267.16C492.781 267.333 493.234 267.573 493.628 267.88L492.848 268.96C492.114 268.4 491.378 268.12 490.638 268.12C490.378 268.12 490.151 268.153 489.958 268.22C489.764 268.287 489.614 268.38 489.508 268.5C489.408 268.613 489.358 268.75 489.358 268.91C489.358 269.123 489.434 269.29 489.588 269.41C489.741 269.523 489.998 269.61 490.358 269.67L491.678 269.89C492.378 270.003 492.901 270.227 493.248 270.56C493.594 270.887 493.768 271.32 493.768 271.86C493.768 272.313 493.648 272.71 493.408 273.05C493.168 273.383 492.824 273.643 492.378 273.83C491.938 274.01 491.418 274.1 490.818 274.1ZM497.626 274V267H499.076V270.13L502.136 267H503.906L500.506 270.33L504.066 274H502.126L499.076 270.75V274H497.626ZM507.355 274V267H508.805V274H507.355ZM514.989 274V268.28H512.629V267H518.789V268.28H516.439V274H514.989ZM524.61 274V268.28H522.25V267H528.41V268.28H526.06V274H524.61ZM532.224 274V267H533.674V272.72H537.504V274H532.224ZM541.503 274V267H546.883V268.26H542.953V269.86H545.543V271.08H542.953V272.74H546.923V274H541.503ZM553.448 274.1C552.882 274.1 552.328 273.997 551.788 273.79C551.248 273.577 550.768 273.277 550.348 272.89L551.178 271.85C551.585 272.21 551.975 272.47 552.348 272.63C552.728 272.79 553.128 272.87 553.548 272.87C553.842 272.87 554.095 272.837 554.308 272.77C554.522 272.697 554.685 272.593 554.798 272.46C554.918 272.327 554.978 272.17 554.978 271.99C554.978 271.75 554.892 271.567 554.718 271.44C554.545 271.307 554.248 271.203 553.828 271.13L552.438 270.89C551.845 270.79 551.392 270.58 551.078 270.26C550.772 269.94 550.618 269.527 550.618 269.02C550.618 268.587 550.728 268.21 550.948 267.89C551.175 267.57 551.492 267.327 551.898 267.16C552.312 266.987 552.802 266.9 553.368 266.9C553.882 266.9 554.392 266.987 554.898 267.16C555.412 267.333 555.865 267.573 556.258 267.88L555.478 268.96C554.745 268.4 554.008 268.12 553.268 268.12C553.008 268.12 552.782 268.153 552.588 268.22C552.395 268.287 552.245 268.38 552.138 268.5C552.038 268.613 551.988 268.75 551.988 268.91C551.988 269.123 552.065 269.29 552.218 269.41C552.372 269.523 552.628 269.61 552.988 269.67L554.308 269.89C555.008 270.003 555.532 270.227 555.878 270.56C556.225 270.887 556.398 271.32 556.398 271.86C556.398 272.313 556.278 272.71 556.038 273.05C555.798 273.383 555.455 273.643 555.008 273.83C554.568 274.01 554.048 274.1 553.448 274.1ZM567.179 274V268.28H564.819V267H570.979V268.28H568.629V274H567.179ZM574.792 274V267H580.172V268.26H576.242V269.86H578.832V271.08H576.242V272.74H580.212V274H574.792ZM583.675 274L586.555 267H588.225L591.075 274H589.505L588.795 272.16H585.905L585.185 274H583.675ZM586.355 271H588.355L587.355 268.42L586.355 271ZM594.669 274V267H596.529L598.449 270.78L600.369 267H602.229V274H600.859V268.85L598.429 273.5L596.009 268.83V274H594.669Z" fill="white"/>
</g>
<defs>
<filter id="filter0_d_152_3" x="0.0734863" y="0" width="610.156" height="288.15" filterUnits="userSpaceOnUse" color-interpolation-filters="sRGB">
<feFlood flood-opacity="0" result="BackgroundImageFix"/>
<feColorMatrix in="SourceAlpha" type="matrix" values="0 0 0 0 0 0 0 0 0 0 0 0 0 0 0 0 0 0 127 0" result="hardAlpha"/>
<feOffset dy="4"/>
<feGaussianBlur stdDeviation="4"/>
<feComposite in2="hardAlpha" operator="out"/>
<feColorMatrix type="matrix" values="0 0 0 0 0 0 0 0 0 0 0 0 0 0 0 0 0 0 0.25 0"/>
<feBlend mode="normal" in2="BackgroundImageFix" result="effect1_dropShadow_152_3"/>
<feBlend mode="normal" in="SourceGraphic" in2="effect1_dropShadow_152_3" result="shape"/>
</filter>
</defs>
</svg>
