<svg width="204" height="164" viewBox="0 0 204 164" fill="none" xmlns="http://www.w3.org/2000/svg">
<path fill-rule="evenodd" clip-rule="evenodd" d="M75 40.9153H78.8195L82.561 34.0537H110.934L114.676 41H118.573L114.832 34.0537H122.081L125.744 41H129.642L107.894 0H103.997L119.82 29.8182H112.571L96.7476 0L75 40.9153ZM96.7476 7.36984L84.8215 29.8182H108.674L96.7476 7.36984Z" fill="#0ABAB5"/>
<path d="M7.34 97.48H2.72L1.64 101H0.18L4.04 88.74H7.02L10.86 101H8.44L7.34 97.48ZM6.98 96.28L5.02 89.96L3.08 96.28H6.98ZM23.4756 100.66C23.1023 100.86 22.7223 101.007 22.3356 101.1C21.9623 101.193 21.6223 101.24 21.3156 101.24C20.5556 101.24 19.989 101.1 19.6156 100.82C19.2423 100.527 19.009 100.187 18.9156 99.8C18.8356 99.4133 18.7956 98.9467 18.7956 98.4V92.66H17.2756V91.4H18.7956V89.96L21.2956 89.08V91.4H23.2156V92.66H21.2956V98.8C21.2956 99.2 21.349 99.48 21.4556 99.64C21.5756 99.7867 21.7556 99.86 21.9956 99.86C22.3823 99.86 22.769 99.7467 23.1556 99.52L23.4756 100.66ZM34.6242 101.24C31.6509 101.24 30.1642 99.56 30.1642 96.2C30.1642 94.6933 30.4909 93.48 31.1442 92.56C31.8109 91.6267 32.9709 91.16 34.6242 91.16C36.2642 91.16 37.4109 91.62 38.0642 92.54C38.7176 93.46 39.0442 94.68 39.0442 96.2C39.0442 97.7067 38.7176 98.9267 38.0642 99.86C37.4109 100.78 36.2642 101.24 34.6242 101.24ZM34.6242 100C35.3709 100 35.8776 99.6867 36.1442 99.06C36.4109 98.42 36.5442 97.4667 36.5442 96.2C36.5442 94.92 36.4109 93.9667 36.1442 93.34C35.8909 92.7133 35.3842 92.4 34.6242 92.4C33.8509 92.4 33.3309 92.7133 33.0642 93.34C32.7976 93.9667 32.6642 94.92 32.6642 96.2C32.6642 97.4667 32.7976 98.42 33.0642 99.06C33.3309 99.6867 33.8509 100 34.6242 100ZM58.2506 91.16C59.304 91.16 60.084 91.44 60.5906 92C61.0973 92.5467 61.3506 93.2933 61.3506 94.24V101H58.8706V94.18C58.8706 93.1 58.3773 92.56 57.3906 92.56C56.6973 92.56 56.084 92.78 55.5506 93.22C55.6306 93.54 55.6706 93.88 55.6706 94.24V101H53.1706V94.18C53.1706 93.1 52.6706 92.56 51.6706 92.56C51.044 92.56 50.4573 92.76 49.9106 93.16V101H47.4106V91.4H48.5106L49.4106 92.32C49.8506 91.9867 50.3373 91.7133 50.8706 91.5C51.4173 91.2733 51.9706 91.16 52.5306 91.16C53.7306 91.16 54.604 91.54 55.1506 92.3C55.5906 91.9667 56.0773 91.6933 56.6106 91.48C57.1573 91.2667 57.704 91.16 58.2506 91.16ZM71.447 90.32C71.0337 90.32 70.6804 90.1733 70.387 89.88C70.0937 89.5867 69.947 89.24 69.947 88.84C69.947 88.4133 70.0937 88.0533 70.387 87.76C70.6804 87.4667 71.0337 87.32 71.447 87.32C71.8604 87.32 72.2137 87.4667 72.507 87.76C72.8137 88.0533 72.967 88.4133 72.967 88.84C72.967 89.2533 72.8137 89.6067 72.507 89.9C72.2137 90.18 71.8604 90.32 71.447 90.32ZM72.687 101H70.207V91.4H72.687V101ZM83.5548 96.2C83.5548 97.5467 83.6815 98.52 83.9348 99.12C84.2015 99.7067 84.6815 100 85.3748 100C85.9215 100 86.3215 99.8 86.5748 99.4C86.8415 99 86.9882 98.3867 87.0148 97.56L89.1348 97.64C89.0548 98.84 88.7282 99.74 88.1548 100.34C87.5815 100.94 86.6148 101.24 85.2548 101.24C83.6415 101.24 82.5348 100.787 81.9348 99.88C81.3482 98.96 81.0548 97.7333 81.0548 96.2C81.0548 94.64 81.3482 93.4133 81.9348 92.52C82.5348 91.6133 83.6415 91.16 85.2548 91.16C86.6015 91.16 87.5615 91.4467 88.1348 92.02C88.7082 92.5933 89.0348 93.4467 89.1148 94.58L87.0148 94.82C86.9882 93.98 86.8482 93.3667 86.5948 92.98C86.3415 92.5933 85.9348 92.4 85.3748 92.4C84.6815 92.4 84.2015 92.7 83.9348 93.3C83.6815 93.8867 83.5548 94.8533 83.5548 96.2ZM117.272 88.74V101H114.732V95.48H110.552V101H108.032V88.74H110.552V94.26H114.732V88.74H117.272ZM134.457 91.4V101H132.837L132.177 99.92C131.364 100.8 130.377 101.24 129.217 101.24C127.164 101.24 126.137 100.213 126.137 98.16V91.4H128.637V97.88C128.637 98.56 128.75 99.0733 128.977 99.42C129.217 99.7667 129.604 99.94 130.137 99.94C130.83 99.94 131.437 99.6133 131.957 98.96V91.4H134.457ZM148.709 91.16C149.722 91.16 150.495 91.4267 151.029 91.96C151.562 92.4933 151.829 93.2533 151.829 94.24V101H149.329V94.52C149.329 93.8267 149.222 93.3267 149.009 93.02C148.795 92.7133 148.455 92.56 147.989 92.56C147.309 92.56 146.642 92.8 145.989 93.28V101H143.489V91.4H144.589L145.489 92.32C145.969 91.9733 146.495 91.6933 147.069 91.48C147.655 91.2667 148.202 91.16 148.709 91.16ZM165.601 100.66C165.227 100.86 164.847 101.007 164.461 101.1C164.087 101.193 163.747 101.24 163.441 101.24C162.681 101.24 162.114 101.1 161.741 100.82C161.367 100.527 161.134 100.187 161.041 99.8C160.961 99.4133 160.921 98.9467 160.921 98.4V92.66H159.401V91.4H160.921V89.96L163.421 89.08V91.4H165.341V92.66H163.421V98.8C163.421 99.2 163.474 99.48 163.581 99.64C163.701 99.7867 163.881 99.86 164.121 99.86C164.507 99.86 164.894 99.7467 165.281 99.52L165.601 100.66ZM180.729 96.48H174.789C174.789 97.7867 174.943 98.7 175.249 99.22C175.556 99.74 176.056 100 176.749 100C177.869 100 178.469 99.3867 178.549 98.16L180.609 98.24C180.516 99.1733 180.169 99.9067 179.569 100.44C178.969 100.973 177.996 101.24 176.649 101.24C175.103 101.24 173.989 100.827 173.309 100C172.629 99.16 172.289 97.8933 172.289 96.2C172.289 94.68 172.603 93.46 173.229 92.54C173.869 91.62 174.996 91.16 176.609 91.16C178.169 91.16 179.243 91.6267 179.829 92.56C180.429 93.4933 180.729 94.7067 180.729 96.2V96.48ZM176.589 92.4C176.016 92.4 175.589 92.62 175.309 93.06C175.043 93.4867 174.883 94.2133 174.829 95.24H178.309C178.269 94.2933 178.116 93.5867 177.849 93.12C177.596 92.64 177.176 92.4 176.589 92.4ZM191.286 93.22C191.606 92.6467 192.033 92.1867 192.566 91.84C193.1 91.4933 193.72 91.32 194.426 91.32V93.12C193.4 93.12 192.666 93.3133 192.226 93.7C191.8 94.0867 191.586 94.6667 191.586 95.44V101H189.086V91.4H190.186L191.286 93.22Z" fill="#0ABAB5"/>
</svg>
