<svg width="573" height="175" viewBox="0 0 573 175" fill="none" xmlns="http://www.w3.org/2000/svg">
<path d="M241.315 73L255.715 38H264.065L278.315 73H270.465L266.915 63.8H252.465L248.865 73H241.315ZM254.715 58H264.715L259.715 45.1L254.715 58ZM299.439 73V44.4H287.639V38H318.439V44.4H306.689V73H299.439ZM352.508 73.55C349.908 73.55 347.491 73.1 345.258 72.2C343.025 71.2667 341.058 69.9833 339.358 68.35C337.691 66.6833 336.375 64.7667 335.408 62.6C334.475 60.4 334.008 58.0333 334.008 55.5C334.008 52.9667 334.475 50.6167 335.408 48.45C336.375 46.25 337.691 44.3333 339.358 42.7C341.058 41.0333 343.025 39.75 345.258 38.85C347.491 37.9167 349.908 37.45 352.508 37.45C355.108 37.45 357.525 37.9167 359.758 38.85C362.025 39.75 363.991 41.0333 365.658 42.7C367.358 44.3333 368.675 46.25 369.608 48.45C370.541 50.6167 371.008 52.9667 371.008 55.5C371.008 58.0333 370.541 60.4 369.608 62.6C368.675 64.7667 367.358 66.6833 365.658 68.35C363.991 69.9833 362.025 71.2667 359.758 72.2C357.525 73.1 355.108 73.55 352.508 73.55ZM352.508 66.9C354.108 66.9 355.575 66.6167 356.908 66.05C358.241 65.45 359.408 64.65 360.408 63.65C361.408 62.6167 362.191 61.4 362.758 60C363.325 58.6 363.608 57.1 363.608 55.5C363.608 53.8667 363.325 52.3667 362.758 51C362.191 49.6 361.408 48.4 360.408 47.4C359.408 46.3667 358.241 45.5667 356.908 45C355.575 44.4 354.108 44.1 352.508 44.1C350.941 44.1 349.491 44.4 348.158 45C346.825 45.5667 345.658 46.3667 344.658 47.4C343.658 48.4 342.875 49.6 342.308 51C341.741 52.3667 341.458 53.85 341.458 55.45C341.458 57.0833 341.741 58.6 342.308 60C342.875 61.4 343.658 62.6167 344.658 63.65C345.658 64.65 346.825 65.45 348.158 66.05C349.491 66.6167 350.941 66.9 352.508 66.9ZM391.032 73V38H400.332L409.932 56.85L419.532 38H428.832V73H421.982V47.25L409.832 70.5L397.732 47.15V73H391.032ZM450.124 73V38H457.374V73H450.124ZM495.997 73.5C493.397 73.5 490.963 73.05 488.697 72.15C486.43 71.2167 484.447 69.9333 482.747 68.3C481.08 66.6667 479.763 64.7667 478.797 62.6C477.863 60.4 477.397 58.0333 477.397 55.5C477.397 52.9333 477.863 50.5667 478.797 48.4C479.763 46.2 481.097 44.2833 482.797 42.65C484.497 41.0167 486.463 39.75 488.697 38.85C490.963 37.9167 493.397 37.45 495.997 37.45C497.93 37.45 499.797 37.7167 501.597 38.25C503.397 38.7833 505.063 39.5333 506.597 40.5C508.163 41.4667 509.497 42.6333 510.597 44L505.697 48.85C504.43 47.2833 502.963 46.1 501.297 45.3C499.663 44.5 497.897 44.1 495.997 44.1C494.43 44.1 492.963 44.4 491.597 45C490.23 45.5667 489.047 46.3667 488.047 47.4C487.047 48.4 486.263 49.6 485.697 51C485.13 52.3667 484.847 53.8667 484.847 55.5C484.847 57.1 485.13 58.6 485.697 60C486.263 61.3667 487.063 62.5667 488.097 63.6C489.13 64.6 490.33 65.3833 491.697 65.95C493.097 66.5167 494.613 66.8 496.247 66.8C498.08 66.8 499.797 66.4167 501.397 65.65C502.997 64.8833 504.413 63.7833 505.647 62.35L510.397 67.05C509.297 68.3833 507.98 69.5333 506.447 70.5C504.913 71.4667 503.247 72.2167 501.447 72.75C499.68 73.25 497.863 73.5 495.997 73.5ZM237.438 139V104H244.688V118.1H260.788V104H268.038V139H260.788V124.65H244.688V139H237.438ZM304.351 139.5C301.184 139.5 298.434 138.867 296.101 137.6C293.801 136.333 292.018 134.533 290.751 132.2C289.484 129.833 288.851 127.067 288.851 123.9V104H296.101V123.9C296.101 125.7 296.434 127.283 297.101 128.65C297.801 129.983 298.768 131.017 300.001 131.75C301.268 132.45 302.734 132.8 304.401 132.8C306.068 132.8 307.518 132.45 308.751 131.75C309.984 131.017 310.934 129.983 311.601 128.65C312.301 127.283 312.651 125.7 312.651 123.9V104H319.851V123.9C319.851 127.033 319.218 129.783 317.951 132.15C316.684 134.483 314.884 136.3 312.551 137.6C310.251 138.867 307.518 139.5 304.351 139.5ZM340.631 139V104H347.531L364.931 126.6V104H371.731V139H365.331L347.481 115.6V139H340.631ZM402.633 139V110.4H390.833V104H421.633V110.4H409.883V139H402.633ZM440.7 139V104H467.6V110.3H447.95V118.3H460.9V124.4H447.95V132.7H467.8V139H440.7ZM487.926 139V104H505.026C507.393 104 509.476 104.467 511.276 105.4C513.11 106.3 514.543 107.567 515.576 109.2C516.61 110.833 517.126 112.717 517.126 114.85C517.126 117.083 516.493 119.05 515.226 120.75C513.993 122.45 512.343 123.717 510.276 124.55L518.026 139H509.926L503.076 125.6H495.176V139H487.926ZM495.176 119.65H504.376C506.01 119.65 507.31 119.217 508.276 118.35C509.276 117.483 509.776 116.35 509.776 114.95C509.776 113.55 509.276 112.417 508.276 111.55C507.31 110.683 506.01 110.25 504.376 110.25H495.176V119.65Z" fill="#0ABAB5"/>
<path fill-rule="evenodd" clip-rule="evenodd" d="M0 174.638H14.9237L29.5428 145.351H140.404L155.024 175H170.252L155.633 145.351H183.957L198.272 175H213.5L128.526 0H113.298L175.125 127.273H146.8L84.9736 0L0 174.638ZM38.3752 127.273H131.572L84.9736 31.4566L38.3752 127.273Z" fill="#0ABAB5"/>
</svg>
