<svg width="687" height="274" viewBox="0 0 687 274" fill="none" xmlns="http://www.w3.org/2000/svg">
<rect width="687" height="274" fill="#0ABAB5"/>
<path fill-rule="evenodd" clip-rule="evenodd" d="M278.131 159.012H287.361L296.403 140.898H364.969L374.011 159.235H383.43L374.388 140.898H391.906L400.76 159.235H410.178L357.623 51H348.205L386.444 129.717H368.925L330.686 51L278.131 159.012ZM301.866 129.717H359.507L330.686 70.4555L301.866 129.717Z" fill="white"/>
<path d="M195.287 207.119L202.487 189.619H206.662L213.787 207.119H209.862L208.087 202.519H200.862L199.062 207.119H195.287ZM201.987 199.619H206.987L204.487 193.169L201.987 199.619ZM224.349 207.119V192.819H218.449V189.619H233.849V192.819H227.974V207.119H224.349ZM250.883 207.394C249.583 207.394 248.375 207.169 247.258 206.719C246.142 206.253 245.158 205.611 244.308 204.794C243.475 203.961 242.817 203.003 242.333 201.919C241.867 200.819 241.633 199.636 241.633 198.369C241.633 197.103 241.867 195.928 242.333 194.844C242.817 193.744 243.475 192.786 244.308 191.969C245.158 191.136 246.142 190.494 247.258 190.044C248.375 189.578 249.583 189.344 250.883 189.344C252.183 189.344 253.392 189.578 254.508 190.044C255.642 190.494 256.625 191.136 257.458 191.969C258.308 192.786 258.967 193.744 259.433 194.844C259.9 195.928 260.133 197.103 260.133 198.369C260.133 199.636 259.9 200.819 259.433 201.919C258.967 203.003 258.308 203.961 257.458 204.794C256.625 205.611 255.642 206.253 254.508 206.719C253.392 207.169 252.183 207.394 250.883 207.394ZM250.883 204.069C251.683 204.069 252.417 203.928 253.083 203.644C253.75 203.344 254.333 202.944 254.833 202.444C255.333 201.928 255.725 201.319 256.008 200.619C256.292 199.919 256.433 199.169 256.433 198.369C256.433 197.553 256.292 196.803 256.008 196.119C255.725 195.419 255.333 194.819 254.833 194.319C254.333 193.803 253.75 193.403 253.083 193.119C252.417 192.819 251.683 192.669 250.883 192.669C250.1 192.669 249.375 192.819 248.708 193.119C248.042 193.403 247.458 193.803 246.958 194.319C246.458 194.819 246.067 195.419 245.783 196.119C245.5 196.803 245.358 197.544 245.358 198.344C245.358 199.161 245.5 199.919 245.783 200.619C246.067 201.319 246.458 201.928 246.958 202.444C247.458 202.944 248.042 203.344 248.708 203.644C249.375 203.928 250.1 204.069 250.883 204.069ZM270.145 207.119V189.619H274.795L279.595 199.069L284.395 189.619H289.045V207.119H285.62V194.244L279.545 205.869L273.495 194.194V207.119H270.145ZM299.691 207.119V189.619H303.316V207.119H299.691ZM322.628 207.369C321.328 207.369 320.111 207.144 318.978 206.694C317.844 206.228 316.853 205.586 316.003 204.769C315.169 203.953 314.511 203.003 314.028 201.919C313.561 200.819 313.328 199.636 313.328 198.369C313.328 197.086 313.561 195.903 314.028 194.819C314.511 193.719 315.178 192.761 316.028 191.944C316.878 191.128 317.861 190.494 318.978 190.044C320.111 189.578 321.328 189.344 322.628 189.344C323.594 189.344 324.528 189.478 325.428 189.744C326.328 190.011 327.161 190.386 327.928 190.869C328.711 191.353 329.378 191.936 329.928 192.619L327.478 195.044C326.844 194.261 326.111 193.669 325.278 193.269C324.461 192.869 323.578 192.669 322.628 192.669C321.844 192.669 321.111 192.819 320.428 193.119C319.744 193.403 319.153 193.803 318.653 194.319C318.153 194.819 317.761 195.419 317.478 196.119C317.194 196.803 317.053 197.553 317.053 198.369C317.053 199.169 317.194 199.919 317.478 200.619C317.761 201.303 318.161 201.903 318.678 202.419C319.194 202.919 319.794 203.311 320.478 203.594C321.178 203.878 321.936 204.019 322.753 204.019C323.669 204.019 324.528 203.828 325.328 203.444C326.128 203.061 326.836 202.511 327.453 201.794L329.828 204.144C329.278 204.811 328.619 205.386 327.853 205.869C327.086 206.353 326.253 206.728 325.353 206.994C324.469 207.244 323.561 207.369 322.628 207.369ZM351.976 207.119V189.619H355.601V196.669H363.651V189.619H367.276V207.119H363.651V199.944H355.601V207.119H351.976ZM385.433 207.369C383.849 207.369 382.474 207.053 381.308 206.419C380.158 205.786 379.266 204.886 378.633 203.719C377.999 202.536 377.683 201.153 377.683 199.569V189.619H381.308V199.569C381.308 200.469 381.474 201.261 381.808 201.944C382.158 202.611 382.641 203.128 383.258 203.494C383.891 203.844 384.624 204.019 385.458 204.019C386.291 204.019 387.016 203.844 387.633 203.494C388.249 203.128 388.724 202.611 389.058 201.944C389.408 201.261 389.583 200.469 389.583 199.569V189.619H393.183V199.569C393.183 201.136 392.866 202.511 392.233 203.694C391.599 204.861 390.699 205.769 389.533 206.419C388.383 207.053 387.016 207.369 385.433 207.369ZM403.573 207.119V189.619H407.023L415.723 200.919V189.619H419.123V207.119H415.923L406.998 195.419V207.119H403.573ZM434.574 207.119V192.819H428.674V189.619H444.074V192.819H438.199V207.119H434.574ZM453.607 207.119V189.619H467.057V192.769H457.232V196.769H463.707V199.819H457.232V203.969H467.157V207.119H453.607ZM477.221 207.119V189.619H485.771C486.954 189.619 487.996 189.853 488.896 190.319C489.812 190.769 490.521 191.403 491.021 192.219C491.537 193.036 491.796 193.978 491.796 195.044C491.796 196.161 491.487 197.144 490.871 197.994C490.254 198.844 489.429 199.478 488.396 199.894L492.271 207.119H488.221L484.796 200.419H480.846V207.119H477.221ZM480.846 197.444H485.446C486.262 197.444 486.912 197.228 487.396 196.794C487.896 196.361 488.146 195.794 488.146 195.094C488.146 194.394 487.896 193.828 487.396 193.394C486.912 192.961 486.262 192.744 485.446 192.744H480.846V197.444Z" fill="white"/>
</svg>
