<svg width="951" height="248" viewBox="0 0 951 248" fill="none" xmlns="http://www.w3.org/2000/svg">
<rect width="951" height="248" fill="#0ABAB5"/>
<path fill-rule="evenodd" clip-rule="evenodd" d="M410.131 146.012H419.361L428.403 127.898H496.969L506.011 146.235H515.43L506.388 127.898H523.906L532.76 146.235H542.178L489.623 38H480.205L518.444 116.717H500.925L462.686 38L410.131 146.012ZM433.866 116.717H491.507L462.686 57.4555L433.866 116.717Z" fill="white"/>
<path d="M327.287 194.119L334.487 176.619H338.662L345.787 194.119H341.862L340.087 189.519H332.862L331.062 194.119H327.287ZM333.987 186.619H338.987L336.487 180.169L333.987 186.619ZM356.349 194.119V179.819H350.449V176.619H365.849V179.819H359.974V194.119H356.349ZM382.883 194.394C381.583 194.394 380.375 194.169 379.258 193.719C378.142 193.253 377.158 192.611 376.308 191.794C375.475 190.961 374.817 190.003 374.333 188.919C373.867 187.819 373.633 186.636 373.633 185.369C373.633 184.103 373.867 182.928 374.333 181.844C374.817 180.744 375.475 179.786 376.308 178.969C377.158 178.136 378.142 177.494 379.258 177.044C380.375 176.578 381.583 176.344 382.883 176.344C384.183 176.344 385.392 176.578 386.508 177.044C387.642 177.494 388.625 178.136 389.458 178.969C390.308 179.786 390.967 180.744 391.433 181.844C391.9 182.928 392.133 184.103 392.133 185.369C392.133 186.636 391.9 187.819 391.433 188.919C390.967 190.003 390.308 190.961 389.458 191.794C388.625 192.611 387.642 193.253 386.508 193.719C385.392 194.169 384.183 194.394 382.883 194.394ZM382.883 191.069C383.683 191.069 384.417 190.928 385.083 190.644C385.75 190.344 386.333 189.944 386.833 189.444C387.333 188.928 387.725 188.319 388.008 187.619C388.292 186.919 388.433 186.169 388.433 185.369C388.433 184.553 388.292 183.803 388.008 183.119C387.725 182.419 387.333 181.819 386.833 181.319C386.333 180.803 385.75 180.403 385.083 180.119C384.417 179.819 383.683 179.669 382.883 179.669C382.1 179.669 381.375 179.819 380.708 180.119C380.042 180.403 379.458 180.803 378.958 181.319C378.458 181.819 378.067 182.419 377.783 183.119C377.5 183.803 377.358 184.544 377.358 185.344C377.358 186.161 377.5 186.919 377.783 187.619C378.067 188.319 378.458 188.928 378.958 189.444C379.458 189.944 380.042 190.344 380.708 190.644C381.375 190.928 382.1 191.069 382.883 191.069ZM402.145 194.119V176.619H406.795L411.595 186.069L416.395 176.619H421.045V194.119H417.62V181.244L411.545 192.869L405.495 181.194V194.119H402.145ZM431.691 194.119V176.619H435.316V194.119H431.691ZM454.628 194.369C453.328 194.369 452.111 194.144 450.978 193.694C449.844 193.228 448.853 192.586 448.003 191.769C447.169 190.953 446.511 190.003 446.028 188.919C445.561 187.819 445.328 186.636 445.328 185.369C445.328 184.086 445.561 182.903 446.028 181.819C446.511 180.719 447.178 179.761 448.028 178.944C448.878 178.128 449.861 177.494 450.978 177.044C452.111 176.578 453.328 176.344 454.628 176.344C455.594 176.344 456.528 176.478 457.428 176.744C458.328 177.011 459.161 177.386 459.928 177.869C460.711 178.353 461.378 178.936 461.928 179.619L459.478 182.044C458.844 181.261 458.111 180.669 457.278 180.269C456.461 179.869 455.578 179.669 454.628 179.669C453.844 179.669 453.111 179.819 452.428 180.119C451.744 180.403 451.153 180.803 450.653 181.319C450.153 181.819 449.761 182.419 449.478 183.119C449.194 183.803 449.053 184.553 449.053 185.369C449.053 186.169 449.194 186.919 449.478 187.619C449.761 188.303 450.161 188.903 450.678 189.419C451.194 189.919 451.794 190.311 452.478 190.594C453.178 190.878 453.936 191.019 454.753 191.019C455.669 191.019 456.528 190.828 457.328 190.444C458.128 190.061 458.836 189.511 459.453 188.794L461.828 191.144C461.278 191.811 460.619 192.386 459.853 192.869C459.086 193.353 458.253 193.728 457.353 193.994C456.469 194.244 455.561 194.369 454.628 194.369ZM483.976 194.119V176.619H487.601V183.669H495.651V176.619H499.276V194.119H495.651V186.944H487.601V194.119H483.976ZM517.433 194.369C515.849 194.369 514.474 194.053 513.308 193.419C512.158 192.786 511.266 191.886 510.633 190.719C509.999 189.536 509.683 188.153 509.683 186.569V176.619H513.308V186.569C513.308 187.469 513.474 188.261 513.808 188.944C514.158 189.611 514.641 190.128 515.258 190.494C515.891 190.844 516.624 191.019 517.458 191.019C518.291 191.019 519.016 190.844 519.633 190.494C520.249 190.128 520.724 189.611 521.058 188.944C521.408 188.261 521.583 187.469 521.583 186.569V176.619H525.183V186.569C525.183 188.136 524.866 189.511 524.233 190.694C523.599 191.861 522.699 192.769 521.533 193.419C520.383 194.053 519.016 194.369 517.433 194.369ZM535.573 194.119V176.619H539.023L547.723 187.919V176.619H551.123V194.119H547.923L538.998 182.419V194.119H535.573ZM566.574 194.119V179.819H560.674V176.619H576.074V179.819H570.199V194.119H566.574ZM585.607 194.119V176.619H599.057V179.769H589.232V183.769H595.707V186.819H589.232V190.969H599.157V194.119H585.607ZM609.221 194.119V176.619H617.771C618.954 176.619 619.996 176.853 620.896 177.319C621.812 177.769 622.521 178.403 623.021 179.219C623.537 180.036 623.796 180.978 623.796 182.044C623.796 183.161 623.487 184.144 622.871 184.994C622.254 185.844 621.429 186.478 620.396 186.894L624.271 194.119H620.221L616.796 187.419H612.846V194.119H609.221ZM612.846 184.444H617.446C618.262 184.444 618.912 184.228 619.396 183.794C619.896 183.361 620.146 182.794 620.146 182.094C620.146 181.394 619.896 180.828 619.396 180.394C618.912 179.961 618.262 179.744 617.446 179.744H612.846V184.444Z" fill="white"/>
</svg>
